#!OML:ASF F:\VICON\USERDATA\INSTALL\rory3\rory3.ASF
:FULLY-SPECIFIED
:DEGREES
10
root -5.847143821788947 17.691314438405737 3.0077577994072184 -0.34462444225744093 40.24489506372292 -11.649211747269447
lfemur -1.4481542475243359 20.69518955518807 8.882576022270804
ltibia 36.583688524649354
lfoot 3.6386535503157456 15.560089032908891
ltoes -27.13799078202956
rfemur -29.012590994460126 18.692386753467705 26.284892331367985
rtibia 32.807591034695406
rfoot -4.854922677147606 23.069987771975413
rtoes 31.416394686672675
lowerback 1.2727809382570907 -9.965349151559678 -16.09418641001434
upperback -0.43838536169660536 -13.329189064042264 -3.5150813126128475
thorax 1.5684743043402245 -6.604059069976176 4.622423910756572
lowerneck -5.127179706098891 21.84608798590198 0.9470129197568722
upperneck 16.40880215979188 32.490388128617234 -12.468090621595712
head 8.251940402926566 14.521788124888376 -0.8723052968962713
lclavicle 1.1054456127307753e-14 -4.850045204021514e-15
lhumerus 100.7859913240565 -49.270991601904555 41.152007687853015
lradius 31.51440701688606
lwrist -1.4772298029844162
lhand -12.998604193806717 3.649017033597259
lfingers 7.12502
lthumb -166.9050042215964 213.2179907438839
rclavicle 1.1054456127307753e-14 -4.850045204021514e-15
rhumerus 14.244608075577553 -17.057790658462775 -76.70739334266892
rradius 104.84498828731131
rwrist -11.819600134235477
rhand -60.93699290466216 26.112794241312614
rfingers 7.12502
rthumb -33.04339291516098 -0.8782156075673235
11
root -5.824614288741177 17.693414314956968 3.130577361797092 0.7821694224275149 38.81139561176385 -10.303611915695043
lfemur -0.6214699789086566 20.637389588020792 8.189586682192981
ltibia 36.340188873596134
lfoot 5.051092419273484 16.16298881518192
ltoes -29.535790075102323
rfemur -29.206090907456655 19.3954861877969 25.64889320183125
rtibia 33.48429035464362
rfoot -4.604332810985692 23.850287485837427
rtoes 33.16279332191364
lowerback 1.243400985664727 -10.132588998137612 -16.08228641949136
upperback -0.9101027460152338 -13.591688878714336 -3.95119053481925
thorax 1.0162554159472703 -6.6664789757541145 4.20599472641638
lowerneck -5.3499090682312245 22.005487899545823 0.9336519570517385
upperneck 15.50220358208313 32.64778806907135 -13.048089829747173
head 8.096561209065051 14.601488060158522 -1.015604016177589
lclavicle 1.1054454964096023e-14 -4.850046160305865e-15
lhumerus 103.82799031645236 -47.55899210767156 43.13600668040058
lradius 33.43390609716572
lwrist -0.0015765676866514866
lhand -14.322002935806605 3.692917007278302
lfingers 7.12502
lthumb -168.1810029607252 213.33899073702452
rclavicle 1.1054454964096023e-14 -4.850046160305865e-15
rhumerus 19.32980694648623 -19.017889866259836 -72.06609642025147
rradius 106.51998761972554
rwrist -6.412262440474896
rhand -60.945592899962804 27.212793348504405
rfingers 7.12502
rthumb -33.05159291050248 0.22345949507982965
12
root -5.812604537658012 17.69851401515281 3.2341369928107424 1.6505583181440215 37.503696111710255 -9.283182043420581
lfemur 0.13997534742517104 20.634789589497696 7.779837072390678
ltibia 36.04298929949757
lfoot 6.3504513787824965 16.40918872627108
ltoes -26.986390826724705
rfemur -29.317790857232975 20.2874854701488 25.14109389683321
rtibia 33.88068995628017
rfoot -4.38620292748719 24.202387356721502
rtoes 33.94679270924125
lowerback 1.3737407753477529 -10.326088820625248 -15.881086579724709
upperback -1.2889952514880907 -13.919888647001422 -4.1855701168071295
thorax 0.4919564713519686 -6.776228810088049 3.9201552862900613
lowerneck -5.802457772191138 22.319987729163184 0.1841770490841168
upperneck 14.51650512846796 32.97578794498581 -13.259689540858943
head 7.785332823780462 14.75938793191706 -0.9737763900080223
lclavicle 1.1054455619526764e-14 -4.8500457060693136e-15
lhumerus 106.68898936880095 -45.3376927638985 44.638705917346805
lradius 35.007605343133946
lwrist 1.1019885632975743
lhand -17.680499743277235 2.0594779865590045
lfingers 7.12502
lthumb -171.42099975914 211.86499082058123
rclavicle 1.1054455619526764e-14 -4.8500457060693136e-15
rhumerus 24.287205845771066 -20.984689071348882 -67.77159926787567
rradius 108.02598701949621
rwrist -1.2472146433772373
rhand -60.20399330520131 23.674296220506136
rfingers 7.12502
rthumb -32.345993311359244 -3.4616145032987404
13
root -5.803374728957127 17.700013926975114 3.3196866879943685 2.4423282230617502 36.143096631880844 -8.356442159418492
lfemur 0.7839287777064676 20.733889533204916 7.347467484129006
ltibia 35.885689524915755
lfoot 5.155462335696918 17.864488200714437
ltoes -17.25979369435296
rfemur -29.48549078182994 20.930784952589388 24.66979454187933
rtibia 34.245289589874254
rfoot -4.154113051444574 25.0219870561721
rtoes 34.41559234288814
lowerback 1.2618909558292124 -10.054289069968222 -15.385786974175812
upperback -1.7823646075467448 -13.59568887589025 -4.994648673828872
thorax -0.3423808491414627 -6.540409166054946 2.9581571705557055
lowerneck -4.924250287262114 21.98928790832236 1.6772928813039485
upperneck 14.067805832397022 32.369388174392604 -13.730088898642457
head 7.757232969568152 14.590988068686244 -1.4028405552878347
lclavicle 1.105445531341882e-14 -4.8500454430905346e-15
lhumerus 110.77998801373545 -43.90349318759664 43.693806397156145
lradius 36.636204562797076
lwrist 3.191477239782113
lhand -20.533697031076912 0.23750807886795577
lfingers 7.12502
lthumb -174.1749970377926 210.13699091853596
rclavicle 1.105445531341882e-14 -4.8500454430905346e-15
rhumerus 26.70040530995665 -24.121587803525077 -63.358502194141906
rradius 109.43398645832559
rwrist 0.9635594137235817
rhand -59.58289364459403 21.405698061801367
rfingers 7.12502
rthumb -31.754593647338158 -5.849122558590084
